<svg width="35" height="36" viewBox="0 0 35 36" fill="none" xmlns="http://www.w3.org/2000/svg">
<path fill-rule="evenodd" clip-rule="evenodd" d="M21.9991 21.8658C20.1476 21.1916 18.1174 20.8359 16.0486 20.8359C12.9596 20.8359 9.95698 21.6287 7.50635 23.0913C5.48157 24.2997 3.92712 25.9095 2.99709 27.7414C2.68793 28.3504 3.08593 29.0483 3.7545 29.1877L6.79489 29.8213C11.803 30.865 16.9435 31.0523 21.9991 30.3833V28.915H19.1643C17.2856 28.915 15.7626 27.392 15.7626 25.5133C15.7626 23.6346 17.2856 22.1116 19.1643 22.1116L21.9991 22.1116V21.8658ZM28.8025 28.9763C28.8276 28.9569 28.8517 28.9364 28.8748 28.915H28.8025V28.9763Z" fill="#2A2D36"/>
<path d="M25.4043 19.2734L25.4043 31.7464" stroke="#2A2D36" stroke-width="2.83477" stroke-linecap="round"/>
<path d="M31.6406 25.5117L19.1676 25.5117" stroke="#2A2D36" stroke-width="2.83477" stroke-linecap="round"/>
<circle cx="16.0554" cy="9.92063" r="7.79563" fill="#023047"/>
</svg>
