<svg width="32" height="32" viewBox="0 0 32 32" fill="none" xmlns="http://www.w3.org/2000/svg">
<path fill-rule="evenodd" clip-rule="evenodd" d="M32 8.78171C32 8.35273 31.728 7.9683 31.3152 7.81391C30.9035 7.66055 30.4363 7.76935 30.1408 8.0885L21.1573 17.7841L15.5253 14.1367C15.0784 13.8476 14.4789 13.9254 14.1269 14.3202L0.260232 29.863C-0.0128349 30.1697 -0.0768349 30.6028 0.0959653 30.9717C0.269832 31.3417 0.648499 31.5779 1.06663 31.5779H30.9333C31.5221 31.5779 32 31.1137 32 30.5417V8.78171ZM28.432 2.56457L20.0907 11.567L14.4586 7.9196C14.0224 7.63672 13.4389 7.70407 13.0826 8.07917L0.282632 21.5497C-0.116302 21.9693 -0.0896349 22.6252 0.343432 23.0138C0.775433 23.4013 1.45063 23.3754 1.85063 22.9547L14.033 10.135L19.6747 13.7886C20.1152 14.0735 20.7051 14.002 21.0592 13.6197L29.8667 4.11367V4.63695C29.8667 5.20893 30.3445 5.67314 30.9333 5.67314C31.5221 5.67314 32 5.20893 32 4.63695V1.52838C32 0.956401 31.5221 0.492188 30.9333 0.492188H27.7333C27.1445 0.492188 26.6667 0.956401 26.6667 1.52838C26.6667 2.10036 27.1445 2.56457 27.7333 2.56457H28.432Z" fill="#023047"/>
</svg>
