<svg width="43" height="53" viewBox="0 0 43 53" fill="none" xmlns="http://www.w3.org/2000/svg">
<path fill-rule="evenodd" clip-rule="evenodd" d="M12.3885 39.6648L7.99115 37.126C7.64421 36.9257 7.52534 36.4821 7.72564 36.1351L8.45102 34.8787C8.65132 34.5318 9.09495 34.4129 9.44189 34.6132L13.8392 37.152L23.2946 20.7749C22.3085 20.7758 21.309 20.525 20.3936 19.9965C17.6181 18.394 16.6671 14.845 18.2696 12.0695C19.7026 9.5874 22.6924 8.56448 25.2935 9.52195C25.3862 8.77311 25.6273 8.03007 26.0283 7.33549C27.6307 4.55996 31.1798 3.609 33.9553 5.21145C36.7308 6.8139 37.6818 10.363 36.0794 13.1385C35.6783 13.8331 35.1554 14.4134 34.5532 14.868C36.683 16.6419 37.292 19.7426 35.859 22.2247C34.2565 25.0002 30.7075 25.9512 27.9319 24.3487C27.0166 23.8203 26.2996 23.08 25.8073 22.2257L10.9117 48.0257C10.7114 48.3726 10.2678 48.4915 9.92082 48.2912L8.66444 47.5658C8.3175 47.3655 8.19863 46.9218 8.39894 46.5749L9.487 44.6903L3.83327 41.4262C3.48633 41.2258 3.36746 40.7822 3.56777 40.4353L4.29314 39.1789C4.49345 38.8319 4.93708 38.7131 5.28402 38.9134L10.9377 42.1776L12.3885 39.6648ZM20.7824 13.5202C19.9811 14.908 20.4566 16.6825 21.8444 17.4837C23.2321 18.285 25.0067 17.8095 25.8079 16.4217C26.6091 15.034 26.1336 13.2594 24.7459 12.4582C23.3581 11.657 21.5836 12.1325 20.7824 13.5202ZM28.3207 17.8725C27.5194 19.2602 27.9949 21.0347 29.3827 21.836C30.7704 22.6372 32.545 22.1617 33.3462 20.774C34.1474 19.3862 33.6719 17.6117 32.2842 16.8104C30.8964 16.0092 29.1219 16.4847 28.3207 17.8725ZM28.5411 8.78624C27.7398 10.174 28.2153 11.9485 29.6031 12.7497C30.9908 13.551 32.7654 13.0755 33.5666 11.6877C34.3678 10.3 33.8923 8.52544 32.5046 7.72422C31.1168 6.92299 29.3423 7.39847 28.5411 8.78624Z" fill="#023047"/>
</svg>
