<svg width="37" height="32" viewBox="0 0 37 32" fill="none" xmlns="http://www.w3.org/2000/svg">
<path d="M17.8887 22.8368C18.0751 22.9542 18.2908 23.0164 18.5111 23.0164C18.7313 23.0164 18.947 22.9542 19.1334 22.8368C20.651 21.8761 23.3696 19.9217 24.4396 17.7381C25.9354 14.9103 25.8371 12.0716 24.2103 10.5322C23.7543 10.1043 23.2059 9.78721 22.6076 9.60545C22.0093 9.42369 21.3771 9.38214 20.7602 9.48403C19.9181 9.61472 19.1346 9.99505 18.5111 10.5758C17.8905 9.99699 17.1111 9.6168 16.2729 9.48403C15.6559 9.37838 15.0229 9.41599 14.4228 9.59394C13.8226 9.77189 13.2715 10.0854 12.8118 10.5103C11.185 12.0607 11.0977 14.8776 12.5716 17.6944C13.6525 19.9326 16.3275 21.8761 17.8887 22.8368ZM14.4059 12.2136C14.6055 12.0356 14.8426 11.9049 15.0997 11.8312C15.3568 11.7574 15.6271 11.7426 15.8907 11.7877C16.2404 11.8546 16.5685 12.0059 16.8463 12.2286C17.1242 12.4512 17.3433 12.7384 17.4848 13.0652C17.5842 13.2525 17.7328 13.4092 17.9146 13.5184C18.0964 13.6277 18.3044 13.6855 18.5165 13.6855C18.7286 13.6855 18.9367 13.6277 19.1185 13.5184C19.3002 13.4092 19.4488 13.2525 19.5483 13.0652C19.6897 12.7384 19.9089 12.4512 20.1867 12.2286C20.4646 12.0059 20.7926 11.8546 21.1423 11.7877C21.4042 11.7427 21.6729 11.7576 21.9282 11.8314C22.1835 11.9051 22.4187 12.0358 22.6163 12.2136C23.446 12.9997 23.3478 14.823 22.3761 16.679C21.3992 18.2247 20.076 19.5218 18.5111 20.4676C16.9397 19.517 15.6125 18.2121 14.6351 16.6572C13.6744 14.8339 13.587 13.0106 14.4059 12.2245V12.2136Z" fill="#023047"/>
<path d="M30.1593 21.3739C28.9441 24.0349 26.8545 26.1997 24.2381 27.5082C21.6218 28.8166 18.6363 29.19 15.7782 28.566C12.9202 27.9421 10.3619 26.3586 8.52888 24.0788C6.69583 21.799 5.69852 18.9603 5.70282 16.035C5.70876 15.7759 5.6292 15.5221 5.47642 15.3128C5.32364 15.1034 5.10616 14.9503 4.85761 14.877C4.60906 14.8036 4.34327 14.8142 4.10134 14.9071C3.85942 15 3.65482 15.17 3.5192 15.3908L1.19365 18.8846C1.07741 19.0605 1.01092 19.2645 1.00123 19.4751C0.99155 19.6857 1.03903 19.895 1.13864 20.0808C1.23826 20.2666 1.38629 20.422 1.56704 20.5304C1.7478 20.6389 1.95455 20.6965 2.16536 20.697H4.10878C5.04411 23.6016 6.83572 26.1555 9.24848 28.0237C11.6612 29.8918 14.5824 30.9869 17.6287 31.1652C20.6749 31.3435 23.7039 30.5967 26.3181 29.0227C28.9323 27.4488 31.0096 25.1213 32.2774 22.3456L30.1593 21.3739Z" fill="#023047"/>
<path d="M35.8393 11.9953C35.7405 11.8084 35.5929 11.6518 35.4121 11.5422C35.2314 11.4326 35.0243 11.3741 34.813 11.373H32.9132C31.9779 8.46838 30.1863 5.91444 27.7735 4.04628C25.3607 2.17813 22.4396 1.08305 19.3933 0.904764C16.3471 0.726476 13.3181 1.47331 10.7039 3.04724C8.08965 4.62118 6.01234 6.94869 4.74456 9.72433L6.86267 10.696C8.07788 8.03505 10.1675 5.87029 12.7838 4.56181C15.4002 3.25332 18.3857 2.88 21.2437 3.50391C24.1018 4.12783 26.6601 5.71139 28.4931 7.99119C30.3262 10.271 31.3235 13.1096 31.3192 16.035C31.3088 16.2967 31.3867 16.5543 31.5403 16.7664C31.694 16.9785 31.9144 17.1329 32.1663 17.2047C32.4182 17.2765 32.6869 17.2615 32.9293 17.1623C33.1716 17.063 33.3736 16.8852 33.5028 16.6573L35.8283 13.1963C35.9387 13.0158 35.998 12.8088 36 12.5973C36.0019 12.3858 35.9463 12.1777 35.8393 11.9953Z" fill="#023047"/>
<path d="M17.8887 22.8368C18.0751 22.9542 18.2908 23.0164 18.5111 23.0164C18.7313 23.0164 18.947 22.9542 19.1334 22.8368C20.651 21.8761 23.3696 19.9217 24.4396 17.7381C25.9354 14.9103 25.8371 12.0716 24.2103 10.5322C23.7543 10.1043 23.2059 9.78721 22.6076 9.60545C22.0093 9.42369 21.3771 9.38214 20.7602 9.48403C19.9181 9.61472 19.1346 9.99505 18.5111 10.5758C17.8905 9.99699 17.1111 9.6168 16.2729 9.48403C15.6559 9.37838 15.0229 9.41599 14.4228 9.59394C13.8226 9.77189 13.2715 10.0854 12.8118 10.5103C11.185 12.0607 11.0977 14.8776 12.5716 17.6944C13.6525 19.9326 16.3275 21.8761 17.8887 22.8368ZM14.4059 12.2136C14.6055 12.0356 14.8426 11.9049 15.0997 11.8312C15.3568 11.7574 15.6271 11.7426 15.8907 11.7877C16.2404 11.8546 16.5685 12.0059 16.8463 12.2286C17.1242 12.4512 17.3433 12.7384 17.4848 13.0652C17.5842 13.2525 17.7328 13.4092 17.9146 13.5184C18.0964 13.6277 18.3044 13.6855 18.5165 13.6855C18.7286 13.6855 18.9367 13.6277 19.1185 13.5184C19.3002 13.4092 19.4488 13.2525 19.5483 13.0652C19.6897 12.7384 19.9089 12.4512 20.1867 12.2286C20.4646 12.0059 20.7926 11.8546 21.1423 11.7877C21.4042 11.7427 21.6729 11.7576 21.9282 11.8314C22.1835 11.9051 22.4187 12.0358 22.6163 12.2136C23.446 12.9997 23.3478 14.823 22.3761 16.679C21.3992 18.2247 20.076 19.5218 18.5111 20.4676C16.9397 19.517 15.6125 18.2121 14.6351 16.6572C13.6744 14.8339 13.587 13.0106 14.4059 12.2245V12.2136Z" stroke="#023047"/>
<path d="M30.1593 21.3739C28.9441 24.0349 26.8545 26.1997 24.2381 27.5082C21.6218 28.8166 18.6363 29.19 15.7782 28.566C12.9202 27.9421 10.3619 26.3586 8.52888 24.0788C6.69583 21.799 5.69852 18.9603 5.70282 16.035C5.70876 15.7759 5.6292 15.5221 5.47642 15.3128C5.32364 15.1034 5.10616 14.9503 4.85761 14.877C4.60906 14.8036 4.34327 14.8142 4.10134 14.9071C3.85942 15 3.65482 15.17 3.5192 15.3908L1.19365 18.8846C1.07741 19.0605 1.01092 19.2645 1.00123 19.4751C0.99155 19.6857 1.03903 19.895 1.13864 20.0808C1.23826 20.2666 1.38629 20.422 1.56704 20.5304C1.7478 20.6389 1.95455 20.6965 2.16536 20.697H4.10878C5.04411 23.6016 6.83572 26.1555 9.24848 28.0237C11.6612 29.8918 14.5824 30.9869 17.6287 31.1652C20.6749 31.3435 23.7039 30.5967 26.3181 29.0227C28.9323 27.4488 31.0096 25.1213 32.2774 22.3456L30.1593 21.3739Z" stroke="#023047"/>
<path d="M35.8393 11.9953C35.7405 11.8084 35.5929 11.6518 35.4121 11.5422C35.2314 11.4326 35.0243 11.3741 34.813 11.373H32.9132C31.9779 8.46838 30.1863 5.91444 27.7735 4.04628C25.3607 2.17813 22.4396 1.08305 19.3933 0.904764C16.3471 0.726476 13.3181 1.47331 10.7039 3.04724C8.08965 4.62118 6.01234 6.94869 4.74456 9.72433L6.86267 10.696C8.07788 8.03505 10.1675 5.87029 12.7838 4.56181C15.4002 3.25332 18.3857 2.88 21.2437 3.50391C24.1018 4.12783 26.6601 5.71139 28.4931 7.99119C30.3262 10.271 31.3235 13.1096 31.3192 16.035C31.3088 16.2967 31.3867 16.5543 31.5403 16.7664C31.694 16.9785 31.9144 17.1329 32.1663 17.2047C32.4182 17.2765 32.6869 17.2615 32.9293 17.1623C33.1716 17.063 33.3736 16.8852 33.5028 16.6573L35.8283 13.1963C35.9387 13.0158 35.998 12.8088 36 12.5973C36.0019 12.3858 35.9463 12.1777 35.8393 11.9953Z" stroke="#023047"/>
</svg>
