<svg width="36" height="45" viewBox="0 0 36 45" fill="none" xmlns="http://www.w3.org/2000/svg">
<g clip-path="url(#clip0_7972_51966)">
<path d="M31.29 2.44922H4.47719C2.79626 2.44922 1.43359 3.81967 1.43359 5.51021V32.4762C1.43359 34.1668 2.79626 35.5372 4.47719 35.5372H31.29C32.9709 35.5372 34.3336 34.1668 34.3336 32.4762V5.51021C34.3336 3.81967 32.9709 2.44922 31.29 2.44922ZM32.0003 30.5653C32.0003 32.0153 30.8315 33.1908 29.3897 33.1908H6.37723C4.93546 33.1906 3.76693 32.0151 3.76693 30.5653V7.4211C3.76693 5.9711 4.93546 4.79589 6.37723 4.79589H29.3902C30.8315 4.79589 32.0003 5.9711 32.0003 7.4211V30.5653Z" fill="#023047"/>
<path d="M26.8526 13.7313L26.7537 13.6315C26.0402 12.9146 24.8847 12.9144 24.1723 13.6315L21.5499 16.2687C21.5492 16.2694 21.5483 16.2699 21.5476 16.2708L16.6025 21.2443L11.6934 16.3074C10.9806 15.5903 9.82467 15.5903 9.11207 16.3074L9.01314 16.4065C8.30031 17.1236 8.30031 18.2859 9.01314 19.0026L15.2973 25.3228C15.8899 25.9191 16.7876 26.0177 17.4834 25.6227C17.6493 25.5378 17.8054 25.4259 17.9442 25.286L24.2286 18.9662C24.2295 18.965 24.2309 18.9636 24.2321 18.9624L26.8526 16.3269C27.5652 15.6102 27.5648 14.4479 26.8526 13.7313Z" fill="#023047"/>
<path d="M10.5342 4.70631C10.5342 5.66821 9.82235 6.43698 8.94408 6.43698H8.85774C7.97948 6.43698 7.26758 5.66821 7.26758 4.70631V2.31177C7.26758 1.35011 7.97948 0.570312 8.85774 0.570312H8.94408C9.82235 0.570312 10.5342 1.35011 10.5342 2.31177V4.70631Z" fill="#023047"/>
<path d="M28.5006 4.70631C28.5006 5.66821 27.7884 6.43698 26.9106 6.43698H26.8245C25.946 6.43698 25.2344 5.66821 25.2344 4.70631V2.31177C25.2339 1.35011 25.946 0.570312 26.8238 0.570312H26.9099C27.7884 0.570312 28.5006 1.35011 28.5006 2.31177V4.70631Z" fill="#023047"/>
<path d="M19.4014 4.70631C19.4014 5.66821 18.6895 6.43698 17.8115 6.43698H17.7249C16.8467 6.43698 16.1348 5.66821 16.1348 4.70631V2.31177C16.1348 1.35011 16.8467 0.570312 17.7247 0.570312H17.8113C18.6895 0.570312 19.4014 1.35011 19.4014 2.31177V4.70631Z" fill="#023047"/>
</g>
<defs>
<clipPath id="clip0_7972_51966">
<rect width="35" height="44" fill="white" transform="translate(0.5 0.570312)"/>
</clipPath>
</defs>
</svg>
