<svg width="25" height="25" viewBox="0 0 25 25" fill="none" xmlns="http://www.w3.org/2000/svg">
<path d="M8.9 13.8875C8.9 14.5502 8.36274 15.0875 7.7 15.0875C7.03726 15.0875 6.5 14.5502 6.5 13.8875C6.5 13.2248 7.03726 12.6875 7.7 12.6875C8.36274 12.6875 8.9 13.2248 8.9 13.8875Z" fill="#023047"/>
<path d="M12.5 15.0875C13.1627 15.0875 13.7 14.5502 13.7 13.8875C13.7 13.2248 13.1627 12.6875 12.5 12.6875C11.8373 12.6875 11.3 13.2248 11.3 13.8875C11.3 14.5502 11.8373 15.0875 12.5 15.0875Z" fill="#023047"/>
<path d="M18.5 13.8875C18.5 14.5502 17.9627 15.0875 17.3 15.0875C16.6373 15.0875 16.1 14.5502 16.1 13.8875C16.1 13.2248 16.6373 12.6875 17.3 12.6875C17.9627 12.6875 18.5 13.2248 18.5 13.8875Z" fill="#023047"/>
<path d="M7.7 19.8875C8.36274 19.8875 8.9 19.3502 8.9 18.6875C8.9 18.0248 8.36274 17.4875 7.7 17.4875C7.03726 17.4875 6.5 18.0248 6.5 18.6875C6.5 19.3502 7.03726 19.8875 7.7 19.8875Z" fill="#023047"/>
<path d="M13.7 18.6875C13.7 19.3502 13.1627 19.8875 12.5 19.8875C11.8373 19.8875 11.3 19.3502 11.3 18.6875C11.3 18.0248 11.8373 17.4875 12.5 17.4875C13.1627 17.4875 13.7 18.0248 13.7 18.6875Z" fill="#023047"/>
<path fill-rule="evenodd" clip-rule="evenodd" d="M19.7 1.8875C19.7 1.22476 19.1627 0.6875 18.5 0.6875C17.8373 0.6875 17.3 1.22476 17.3 1.8875H7.7C7.7 1.22476 7.16274 0.6875 6.5 0.6875C5.83726 0.6875 5.3 1.22476 5.3 1.8875H2.9C1.57452 1.8875 0.5 2.96202 0.5 4.2875V22.2875C0.5 23.613 1.57452 24.6875 2.9 24.6875H22.1C23.4255 24.6875 24.5 23.613 24.5 22.2875V4.2875C24.5 2.96202 23.4255 1.8875 22.1 1.8875H19.7ZM7.7 4.2875C7.7 4.95024 7.16274 5.4875 6.5 5.4875C5.83726 5.4875 5.3 4.95024 5.3 4.2875H2.9V7.8875H22.1V4.2875H19.7C19.7 4.95024 19.1627 5.4875 18.5 5.4875C17.8373 5.4875 17.3 4.95024 17.3 4.2875H7.7ZM22.1 10.2875H2.9V22.2875H22.1V10.2875Z" fill="#023047"/>
</svg>
