<svg width="29" height="29" viewBox="0 0 29 29" fill="none" xmlns="http://www.w3.org/2000/svg">
<path d="M14.5 0.6875C14.8713 0.6875 15.2274 0.835 15.4899 1.09755C15.7525 1.3601 15.9 1.7162 15.9 2.0875V2.1645C18.7404 2.48288 21.3883 3.75709 23.4094 5.77815C25.4304 7.7992 26.7046 10.4471 27.023 13.2875H27.1C27.4713 13.2875 27.8274 13.435 28.09 13.6976C28.3525 13.9601 28.5 14.3162 28.5 14.6875C28.5 15.0588 28.3525 15.4149 28.09 15.6774C27.8274 15.94 27.4713 16.0875 27.1 16.0875H27.023C26.7046 18.9279 25.4304 21.5758 23.4094 23.5969C21.3883 25.6179 18.7404 26.8921 15.9 27.2105V27.2875C15.9 27.6588 15.7525 28.0149 15.4899 28.2775C15.2274 28.54 14.8713 28.6875 14.5 28.6875C14.1287 28.6875 13.7726 28.54 13.5101 28.2775C13.2475 28.0149 13.1 27.6588 13.1 27.2875V27.2105C10.2596 26.8921 7.6117 25.6179 5.59065 23.5969C3.56959 21.5758 2.29538 18.9279 1.977 16.0875H1.9C1.5287 16.0875 1.1726 15.94 0.91005 15.6774C0.6475 15.4149 0.5 15.0588 0.5 14.6875C0.5 14.3162 0.6475 13.9601 0.91005 13.6976C1.1726 13.435 1.5287 13.2875 1.9 13.2875H1.977C2.29538 10.4471 3.56959 7.7992 5.59065 5.77815C7.6117 3.75709 10.2596 2.48288 13.1 2.1645V2.0875C13.1 1.7162 13.2475 1.3601 13.5101 1.09755C13.7726 0.835 14.1287 0.6875 14.5 0.6875ZM15.9 4.9855V6.2875C15.8996 6.64433 15.763 6.98755 15.518 7.24702C15.2731 7.50649 14.9383 7.66263 14.582 7.68354C14.2258 7.70445 13.8751 7.58856 13.6014 7.35953C13.3278 7.1305 13.1519 6.80563 13.1098 6.4513L13.1 6.2875V4.9855C11.0669 5.27995 9.17757 6.20533 7.69858 7.63107C6.21958 9.05682 5.22557 10.911 4.8568 12.9319L4.7994 13.2875H6.1C6.45683 13.2879 6.80005 13.4245 7.05952 13.6695C7.31899 13.9144 7.47513 14.2492 7.49604 14.6055C7.51695 14.9617 7.40106 15.3124 7.17203 15.5861C6.943 15.8597 6.61813 16.0356 6.2638 16.0777L6.1 16.0875H4.798C5.09245 18.1206 6.01783 20.0099 7.44357 21.4889C8.86932 22.9679 10.7235 23.9619 12.7444 24.3307L13.1 24.3881V23.0875C13.1004 22.7307 13.237 22.3875 13.482 22.128C13.7269 21.8685 14.0617 21.7124 14.418 21.6915C14.7742 21.6705 15.1249 21.7864 15.3986 22.0155C15.6722 22.2445 15.8481 22.5694 15.8902 22.9237L15.9 23.0875V24.3895C17.9331 24.095 19.8224 23.1697 21.3014 21.7439C22.7804 20.3182 23.7744 18.464 24.1432 16.4431L24.2006 16.0875H22.9C22.5432 16.0871 22.2 15.9505 21.9405 15.7055C21.681 15.4606 21.5249 15.1258 21.504 14.7695C21.483 14.4133 21.5989 14.0626 21.828 13.7889C22.057 13.5153 22.3819 13.3394 22.7362 13.2973L22.9 13.2875H24.202C23.9075 11.2544 22.9822 9.36507 21.5564 7.88608C20.1307 6.40708 18.2765 5.41307 16.2556 5.0443L15.9 4.9855ZM14.5 12.5875C15.057 12.5875 15.5911 12.8087 15.9849 13.2026C16.3788 13.5964 16.6 14.1305 16.6 14.6875C16.6 15.2445 16.3788 15.7786 15.9849 16.1724C15.5911 16.5663 15.057 16.7875 14.5 16.7875C13.943 16.7875 13.4089 16.5663 13.0151 16.1724C12.6212 15.7786 12.4 15.2445 12.4 14.6875C12.4 14.1305 12.6212 13.5964 13.0151 13.2026C13.4089 12.8087 13.943 12.5875 14.5 12.5875Z" fill="#023047"/>
</svg>
