<svg width="48" height="34" viewBox="0 0 48 34" fill="none" xmlns="http://www.w3.org/2000/svg">
<path d="M14.0937 33.3516C11.3021 33.3516 8.89583 32.6901 6.875 31.3672C4.85417 30.0339 3.29688 28.1224 2.20313 25.6328C1.10938 23.1328 0.567708 20.1276 0.578125 16.6172C0.588542 13.1068 1.13542 10.1276 2.21875 7.67969C3.3125 5.22135 4.86458 3.35156 6.875 2.07031C8.89583 0.778645 11.3021 0.132811 14.0937 0.132811C16.8854 0.132811 19.2917 0.778645 21.3125 2.07031C23.3438 3.35156 24.9062 5.22135 26 7.67969C27.0938 10.138 27.6354 13.1172 27.625 16.6172C27.625 20.138 27.0781 23.1484 25.9844 25.6484C24.8906 28.1484 23.3333 30.0599 21.3125 31.3828C19.3021 32.6953 16.8958 33.3516 14.0937 33.3516ZM14.0937 27.0234C15.7604 27.0234 17.1094 26.1745 18.1406 24.4766C19.1719 22.7682 19.6823 20.1484 19.6719 16.6172C19.6719 14.3047 19.4375 12.3984 18.9688 10.8984C18.5 9.38802 17.849 8.26302 17.0156 7.52344C16.1823 6.78385 15.2083 6.41406 14.0937 6.41406C12.4375 6.41406 11.099 7.2526 10.0781 8.92969C9.05729 10.5964 8.54167 13.1589 8.53125 16.6172C8.52083 18.9609 8.74479 20.9036 9.20313 22.4453C9.67188 23.987 10.3281 25.138 11.1719 25.8984C12.0156 26.6484 12.9896 27.0234 14.0937 27.0234ZM39.6988 29.2976V28.3771C39.6988 27.701 39.8409 27.0788 40.125 26.5107C40.4147 25.9425 40.8352 25.4851 41.3863 25.1385C41.9375 24.7919 42.6051 24.6186 43.3892 24.6186C44.196 24.6186 44.8721 24.7919 45.4176 25.1385C45.963 25.4794 46.375 25.9339 46.6534 26.5021C46.9375 27.0703 47.0795 27.6953 47.0795 28.3771V29.2976C47.0795 29.9737 46.9375 30.5959 46.6534 31.1641C46.3693 31.7322 45.9517 32.1896 45.4005 32.5362C44.8551 32.8828 44.1846 33.0561 43.3892 33.0561C42.5937 33.0561 41.9204 32.8828 41.3693 32.5362C40.8182 32.1896 40.4005 31.7322 40.1164 31.1641C39.838 30.5959 39.6988 29.9737 39.6988 29.2976ZM41.9233 28.3771V29.2976C41.9233 29.7464 42.0312 30.1584 42.2471 30.5334C42.463 30.9084 42.8437 31.0959 43.3892 31.0959C43.9403 31.0959 44.3182 30.9112 44.5227 30.5419C44.7329 30.1669 44.838 29.7521 44.838 29.2976V28.3771C44.838 27.9226 44.7386 27.5078 44.5397 27.1328C44.3409 26.7521 43.9574 26.5618 43.3892 26.5618C42.8551 26.5618 42.4772 26.7521 42.2557 27.1328C42.0341 27.5078 41.9233 27.9226 41.9233 28.3771ZM30.8267 19.3089V18.3885C30.8267 17.7067 30.9716 17.0817 31.2613 16.5135C31.5511 15.9453 31.9716 15.4908 32.5227 15.1499C33.0738 14.8033 33.7414 14.63 34.5255 14.63C35.3267 14.63 36 14.8033 36.5454 15.1499C37.0966 15.4908 37.5113 15.9453 37.7897 16.5135C38.0682 17.0817 38.2074 17.7067 38.2074 18.3885V19.3089C38.2074 19.9908 38.0653 20.6158 37.7812 21.1839C37.5028 21.7464 37.088 22.1982 36.5369 22.5391C35.9858 22.88 35.3153 23.0504 34.5255 23.0504C33.7244 23.0504 33.0483 22.88 32.4971 22.5391C31.9517 22.1982 31.5369 21.7436 31.2528 21.1754C30.9687 20.6072 30.8267 19.9851 30.8267 19.3089ZM33.0682 18.3885V19.3089C33.0682 19.7635 33.1733 20.1783 33.3835 20.5533C33.5994 20.9226 33.9801 21.1072 34.5255 21.1072C35.071 21.1072 35.446 20.9226 35.6505 20.5533C35.8608 20.1783 35.9659 19.7635 35.9659 19.3089V18.3885C35.9659 17.9339 35.8664 17.5192 35.6676 17.1442C35.4687 16.7635 35.088 16.5732 34.5255 16.5732C33.9858 16.5732 33.6079 16.7635 33.392 17.1442C33.1761 17.5249 33.0682 17.9396 33.0682 18.3885ZM31.7983 32.5703L43.7983 15.1158H45.9289L33.9289 32.5703H31.7983Z" fill="#023047"/>
</svg>
