<svg width="491" height="132" viewBox="0 0 491 132" fill="none" xmlns="http://www.w3.org/2000/svg">
<path d="M0 1.84999L53.9 1.73999C53.9 7.53332 53.9 13.3233 53.9 19.11C42.7267 19.3367 31.56 19.5867 20.4 19.86C20.4 31.6 20.4 43.3367 20.4 55.07C29.1533 54.4767 37.9033 53.92 46.65 53.4V70.91C37.9033 71.5767 29.1567 72.3133 20.41 73.12L20.35 128.19C13.53 129.25 6.74667 130.36 0 131.52V1.84999Z" fill="#262626"/>
<path d="M63.72 1.72001L119.29 1.64001C119.29 7.09335 119.273 12.5433 119.24 17.99C107.513 18.15 95.7833 18.33 84.05 18.53L84 49.7C93.3333 49.2733 102.667 48.8767 112 48.51C112 53.99 111.983 59.47 111.95 64.95C102.617 65.4367 93.2833 65.97 83.95 66.55L83.85 102.77C95.57 101.643 107.3 100.643 119.04 99.77V116.12C100.5 117.753 81.99 119.753 63.51 122.12L63.72 1.72001Z" fill="#262626"/>
<path d="M131 1.62H162.12C172.247 1.62 179.84 3.92666 184.9 8.54C189.96 13.1533 192.48 19.9 192.46 28.78L192.37 84.4C192.37 93.3 189.8 100.13 184.71 104.95C179.62 109.77 172 112.4 161.81 113C151.417 113.6 141.023 114.313 130.63 115.14L131 1.62ZM161.52 97.09C164.86 96.92 167.43 95.96 169.23 94.19C171.03 92.42 171.93 89.64 171.94 85.84C171.98 66.6133 172 47.3967 172 28.19C172 24.39 171.11 21.65 169.33 19.98C167.55 18.31 164.98 17.48 161.64 17.51L151.27 17.61L151.06 97.61C154.55 97.45 158 97.26 161.48 97.09H161.52Z" fill="#262626"/>
<path d="M206.17 1.57006H226.55V46.0001C233.85 45.9601 241.147 45.9434 248.44 45.9501V1.56006H268.82C268.82 37.9601 268.847 74.3634 268.9 110.77C262.08 110.657 255.263 110.593 248.45 110.58V61.5201C241.117 61.5201 233.813 61.5434 226.54 61.5901V110.7C219.72 110.793 212.903 110.93 206.09 111.11C206.103 74.5901 206.13 38.0767 206.17 1.57006Z" fill="#262626"/>
<path d="M291.17 105.74C285.96 100.83 283.35 93.9701 283.34 85.1101C283.34 57.2567 283.307 29.4067 283.24 1.56006H303.61C303.67 30.0001 303.723 58.4401 303.77 86.8801C303.77 90.6601 304.673 93.4201 306.48 95.1601C308.27 96.9101 310.85 97.8501 314.19 97.9901C317.53 98.1301 320.1 97.4001 321.89 95.7901C323.68 94.1801 324.57 91.4601 324.56 87.6501C324.5 58.9834 324.433 30.2934 324.36 1.58006H344C344.08 30.1534 344.157 58.7234 344.23 87.2901C344.23 96.4034 341.65 103.223 336.49 107.75C331.3 112.29 323.76 114.23 313.85 113.75C303.94 113.27 296.38 110.65 291.17 105.74Z" fill="#262626"/>
<path d="M358.45 1.62H389.2C399.69 1.62 407.36 3.84 412.2 8.34C417.04 12.84 419.45 19.81 419.48 29.13C419.48 30.73 419.48 32.32 419.48 33.91C419.48 40.0567 418.413 45.01 416.28 48.77C414.104 52.5346 410.568 55.3224 406.4 56.56V56.9C416.53 60.57 421.6 69.24 421.64 82.71V92.96C421.64 102.2 419.06 108.96 413.83 113.19C408.6 117.42 400.93 118.91 390.83 117.88C380.163 116.8 369.473 115.84 358.76 115C358.66 77.22 358.557 39.4267 358.45 1.62ZM386.93 48.84C390.997 49.0067 394.05 48.19 396.09 46.39C398.13 44.59 399.13 41.4533 399.09 36.98C399.09 34.81 399.09 32.63 399.09 30.45C399.09 26.22 398.23 23.13 396.56 21.2C394.89 19.27 392.26 18.3 388.68 18.2L378.86 18.05L379 48.52L386.93 48.84ZM390.79 101.31C394.37 101.62 397.02 101.01 398.74 99.43C400.46 97.85 401.32 94.95 401.31 90.7V80.47C401.31 75.0967 400.28 71.3167 398.22 69.13C396.16 66.9433 392.793 65.72 388.12 65.46L379 65C379.04 76.7933 379.077 88.5833 379.11 100.37C383.037 100.663 386.93 100.977 390.79 101.31Z" fill="#262626"/>
<path d="M437.62 117.26C432.55 111.34 430.01 103.58 429.99 93.81C429.99 91.51 429.99 89.21 429.99 86.91C436.397 87.49 442.803 88.1067 449.21 88.76C449.21 91.58 449.21 94.39 449.21 97.21C449.21 105.21 452.74 109.6 459.75 110.53C463.19 110.98 465.8 110.35 467.58 108.6C469.36 106.85 470.25 103.76 470.25 99.3C470.314 94.2621 469.033 89.2983 466.54 84.92C464.07 80.66 459.54 75.4 452.85 69.33C444.46 61.59 438.59 54.95 435.24 49.17C431.901 43.3444 430.175 36.7342 430.24 30.02C430.24 20.48 432.8 13.15 437.97 7.91C443.14 2.67 450.63 0 460.51 0C470.39 0 477.65 2.72 482.65 8.34C487.65 13.96 490.15 22.09 490.15 32.59V38C483.743 37.68 477.333 37.3733 470.92 37.08V30.58C470.92 26.24 470.053 23.0567 468.32 21.03C466.58 19.03 464.05 17.96 460.72 17.89C453.927 17.7567 450.54 21.6267 450.56 29.5C450.584 34.0159 451.91 38.4291 454.38 42.21C456.91 46.21 461.51 51.21 468.17 57.31C476.68 65.11 482.52 72.31 485.73 78.65C489.018 85.4356 490.659 92.901 490.52 100.44C490.52 111.07 487.91 118.85 482.7 123.64C477.49 128.43 469.91 129.94 459.96 128.42C450.01 126.9 442.68 123.17 437.62 117.26Z" fill="#262626"/>
</svg>
