<svg width="50" height="50" viewBox="0 0 50 50" fill="none" xmlns="http://www.w3.org/2000/svg">
<g id="Media / Icon/Filled/check-circle">
<path id="Icon" fill-rule="evenodd" clip-rule="evenodd" d="M25 42.5C34.665 42.5 42.5 34.665 42.5 25C42.5 15.335 34.665 7.5 25 7.5C15.335 7.5 7.5 15.335 7.5 25C7.5 34.665 15.335 42.5 25 42.5ZM33.1093 22.1718C33.9636 21.3175 33.9636 19.9325 33.1093 19.0782C32.255 18.2239 30.87 18.2239 30.0157 19.0782L22.8125 26.2814L19.9843 23.4532C19.13 22.5989 17.745 22.5989 16.8907 23.4532C16.0364 24.3075 16.0364 25.6925 16.8907 26.5468L21.2657 30.9218C22.12 31.7761 23.505 31.7761 24.3593 30.9218L33.1093 22.1718Z" fill="#22C55E"/>
</g>
</svg>
