<svg width="50" height="50" viewBox="0 0 50 50" fill="none" xmlns="http://www.w3.org/2000/svg">
<g id="Media / Icon/Filled/check-circle">
<path id="Subtract" fill-rule="evenodd" clip-rule="evenodd" d="M25.5 7C15.835 7 8 14.835 8 24.5C8 34.165 15.835 42 25.5 42C35.165 42 43 34.165 43 24.5C43 14.835 35.165 7 25.5 7ZM22.4134 19.5097C21.8877 18.984 21.0354 18.984 20.5097 19.5097C19.984 20.0354 19.984 20.8877 20.5097 21.4134L23.5963 24.5L20.5097 27.5866C19.984 28.1123 19.984 28.9646 20.5097 29.4903C21.0354 30.016 21.8877 30.016 22.4134 29.4903L25.5 26.4037L28.5866 29.4903C29.1123 30.016 29.9646 30.016 30.4903 29.4903C31.016 28.9646 31.016 28.1123 30.4903 27.5866L27.4037 24.5L30.4903 21.4134C31.016 20.8877 31.016 20.0354 30.4903 19.5097C29.9646 18.984 29.1123 18.984 28.5866 19.5097L25.5 22.5963L22.4134 19.5097Z" fill="black"/>
</g>
</svg>
