<svg width="150" height="67" viewBox="0 0 150 67" fill="none" xmlns="http://www.w3.org/2000/svg">
<path d="M0 0.560799L16.4511 0.527344C16.4511 2.28931 16.4511 4.05026 16.4511 5.81019C13.0408 5.87913 9.6326 5.95516 6.2264 6.03829C6.2264 9.60885 6.2264 13.1784 6.2264 16.7469C8.89805 16.5665 11.5687 16.3972 14.2383 16.239V21.5644C11.5687 21.7672 8.89907 21.9913 6.22945 22.2366L6.21113 38.9854C4.12957 39.3078 2.05919 39.6453 0 39.9981V0.560799Z" fill="white"/>
<path d="M19.4469 0.524331L36.4077 0.5C36.4077 2.15856 36.4026 3.8161 36.3925 5.47263C32.8133 5.52129 29.2331 5.57603 25.6519 5.63686L25.6367 15.1168C28.4854 14.987 31.334 14.8664 34.1827 14.7549C34.1827 16.4215 34.1776 18.0882 34.1674 19.7549C31.3188 19.9029 28.4701 20.0651 25.6214 20.2415L25.5909 31.2573C29.168 30.9146 32.7482 30.6105 36.3314 30.3449V35.3175C30.6727 35.8143 25.0232 36.4225 19.3828 37.1423L19.4469 0.524331Z" fill="white"/>
<path d="M39.984 0.492188H49.4823C52.5731 0.492188 54.8907 1.19373 56.4351 2.59681C57.9795 3.99989 58.7487 6.0518 58.7426 8.75253L58.7151 25.6686C58.7151 28.3754 57.9307 30.4526 56.3771 31.9186C54.8236 33.3845 52.4979 34.1844 49.3877 34.3669C46.2155 34.5494 43.0433 34.7663 39.8711 35.0177L39.984 0.492188ZM49.2992 29.5281C50.3186 29.4764 51.103 29.1844 51.6524 28.6461C52.2018 28.1078 52.4765 27.2623 52.4795 26.1065C52.4918 20.259 52.4979 14.4145 52.4979 8.57309C52.4979 7.41737 52.2262 6.58404 51.6829 6.07613C51.1396 5.56822 50.3552 5.31579 49.3358 5.32491L46.1707 5.35533L46.1066 29.6862C47.1718 29.6376 48.2248 29.5798 49.287 29.5281H49.2992Z" fill="white"/>
<path d="M62.9268 0.475698H69.1471V13.9885C71.3751 13.9763 73.6022 13.9712 75.8282 13.9733V0.472656H82.0485C82.0485 11.5432 82.0566 22.6148 82.0729 33.6874C79.9914 33.6529 77.9108 33.6336 75.8313 33.6296V18.7087C73.593 18.7087 71.3639 18.7158 69.144 18.73V33.6661C67.0624 33.6945 64.9819 33.736 62.9023 33.7908C62.9064 22.6837 62.9146 11.5787 62.9268 0.475698Z" fill="white"/>
<path d="M88.8696 32.1576C87.2794 30.6643 86.4828 28.5779 86.4797 25.8832C86.4797 17.412 86.4696 8.94184 86.4492 0.472656H92.6665C92.6848 9.12229 92.701 17.7719 92.7153 26.4216C92.7153 27.5712 92.991 28.4106 93.5424 28.9398C94.0888 29.472 94.8762 29.7579 95.8956 29.8005C96.9151 29.8431 97.6995 29.6211 98.2458 29.1314C98.7921 28.6418 99.0638 27.8145 99.0607 26.6557C99.0424 17.9372 99.0221 9.2115 98.9997 0.478739H104.994C105.019 9.16893 105.042 17.8581 105.064 26.5463C105.064 29.318 104.277 31.3922 102.702 32.7689C101.118 34.1497 98.8166 34.7397 95.7919 34.5937C92.7672 34.4477 90.4598 33.6509 88.8696 32.1576Z" fill="white"/>
<path d="M109.406 0.492188H118.792C121.993 0.492188 124.334 1.16737 125.812 2.53598C127.289 3.9046 128.024 6.02443 128.034 8.85898C128.034 9.34559 128.034 9.82917 128.034 10.3127C128.034 12.1822 127.708 13.6887 127.057 14.8322C126.393 15.9772 125.314 16.825 124.041 17.2014V17.3048C127.133 18.421 128.681 21.0579 128.693 25.1546V28.272C128.693 31.0822 127.905 33.1382 126.309 34.4247C124.713 35.7112 122.372 36.1643 119.289 35.8511C116.033 35.5226 112.771 35.2306 109.501 34.9752C109.47 23.4849 109.439 11.9906 109.406 0.492188ZM118.099 14.8535C119.34 14.9042 120.272 14.6558 120.895 14.1084C121.517 13.5609 121.822 12.6069 121.81 11.2464C121.81 10.5865 121.81 9.92345 121.81 9.26044C121.81 7.97394 121.548 7.03416 121.038 6.44718C120.528 5.86019 119.726 5.56518 118.633 5.53477L115.636 5.48915L115.678 14.7562L118.099 14.8535ZM119.277 30.8115C120.37 30.9058 121.178 30.7203 121.703 30.2398C122.228 29.7592 122.491 28.8772 122.488 27.5846V24.4733C122.488 22.8391 122.173 21.6895 121.545 21.0244C120.916 20.3594 119.888 19.9873 118.462 19.9082L115.678 19.7683C115.691 23.3551 115.702 26.9409 115.712 30.5256C116.91 30.6149 118.099 30.7101 119.277 30.8115Z" fill="white"/>
<path d="M133.571 35.663C132.024 33.8625 131.248 31.5024 131.242 28.531C131.242 27.8315 131.242 27.132 131.242 26.4325C133.198 26.6089 135.153 26.7964 137.108 26.9951C137.108 27.8528 137.108 28.7074 137.108 29.5651C137.108 31.9982 138.186 33.3333 140.325 33.6162C141.375 33.753 142.172 33.5614 142.715 33.0292C143.259 32.497 143.53 31.5572 143.53 30.2007C143.55 28.6685 143.159 27.1589 142.398 25.8272C141.644 24.5316 140.261 22.9319 138.219 21.0858C135.659 18.7318 133.867 16.7123 132.845 14.9544C131.826 13.1826 131.299 11.1722 131.318 9.13017C131.318 6.22871 132.1 3.99939 133.678 2.40572C135.256 0.812044 137.542 0 140.557 0C143.573 0 145.789 0.827251 147.315 2.5365C148.841 4.24574 149.604 6.71837 149.604 9.9118V11.5572C147.649 11.4599 145.692 11.3666 143.735 11.2774V9.30049C143.735 7.98054 143.47 7.01237 142.941 6.39599C142.41 5.78771 141.638 5.46229 140.621 5.441C138.548 5.40045 137.514 6.57745 137.52 8.97202C137.528 10.3455 137.933 11.6877 138.686 12.8376C139.459 14.0541 140.863 15.5748 142.895 17.43C145.493 19.8023 147.275 21.9921 148.255 23.9203C149.258 25.9841 149.759 28.2546 149.717 30.5474C149.717 33.7804 148.92 36.1466 147.33 37.6034C145.74 39.0602 143.426 39.5195 140.389 39.0572C137.353 38.5949 135.115 37.4605 133.571 35.663Z" fill="white"/>
<path d="M49.0028 59V40.0909H56.4631C57.8973 40.0909 59.1191 40.3648 60.1286 40.9126C61.138 41.4543 61.9074 42.2083 62.4368 43.1747C62.9723 44.1349 63.2401 45.2429 63.2401 46.4986C63.2401 47.7543 62.9692 48.8622 62.4276 49.8224C61.8859 50.7827 61.1011 51.5305 60.0732 52.0661C59.0514 52.6016 57.8142 52.8693 56.3615 52.8693H51.6065V49.6655H55.7152C56.4846 49.6655 57.1186 49.5331 57.6172 49.2685C58.1219 48.9976 58.4974 48.6252 58.7436 48.1513C58.996 47.6712 59.1222 47.1203 59.1222 46.4986C59.1222 45.8707 58.996 45.3229 58.7436 44.8551C58.4974 44.3812 58.1219 44.0149 57.6172 43.7564C57.1125 43.4917 56.4723 43.3594 55.6967 43.3594H53.0007V59H49.0028ZM65.8368 59V40.0909H73.2971C74.7251 40.0909 75.9438 40.3464 76.9533 40.8572C77.9689 41.362 78.7414 42.0791 79.2708 43.0085C79.8063 43.9318 80.074 45.0182 80.074 46.2678C80.074 47.5234 79.8032 48.6037 79.2615 49.5085C78.7199 50.4072 77.9351 51.0966 76.9071 51.5767C75.8854 52.0568 74.6481 52.2969 73.1955 52.2969H68.2005V49.0838H72.5492C73.3124 49.0838 73.9464 48.9792 74.4512 48.7699C74.9559 48.5606 75.3314 48.2467 75.5776 47.8281C75.83 47.4096 75.9561 46.8894 75.9561 46.2678C75.9561 45.6399 75.83 45.1106 75.5776 44.6797C75.3314 44.2488 74.9528 43.9226 74.4419 43.701C73.9372 43.4732 73.3001 43.3594 72.5307 43.3594H69.8347V59H65.8368ZM76.0485 50.3949L80.748 59H76.3347L71.7367 50.3949H76.0485ZM100.276 49.5455C100.276 51.6075 99.8849 53.3617 99.1032 54.8082C98.3276 56.2547 97.2689 57.3596 95.927 58.1229C94.5913 58.88 93.0894 59.2585 91.4213 59.2585C89.7409 59.2585 88.2329 58.8769 86.8972 58.1136C85.5615 57.3504 84.5059 56.2455 83.7303 54.799C82.9547 53.3525 82.5669 51.6013 82.5669 49.5455C82.5669 47.4834 82.9547 45.7292 83.7303 44.2827C84.5059 42.8362 85.5615 41.7344 86.8972 40.9773C88.2329 40.214 89.7409 39.8324 91.4213 39.8324C93.0894 39.8324 94.5913 40.214 95.927 40.9773C97.2689 41.7344 98.3276 42.8362 99.1032 44.2827C99.8849 45.7292 100.276 47.4834 100.276 49.5455ZM96.2225 49.5455C96.2225 48.2098 96.0224 47.0833 95.6223 46.1662C95.2284 45.2491 94.6713 44.5535 93.9512 44.0795C93.231 43.6056 92.3877 43.3686 91.4213 43.3686C90.455 43.3686 89.6117 43.6056 88.8915 44.0795C88.1713 44.5535 87.6112 45.2491 87.2111 46.1662C86.8172 47.0833 86.6202 48.2098 86.6202 49.5455C86.6202 50.8812 86.8172 52.0076 87.2111 52.9247C87.6112 53.8419 88.1713 54.5374 88.8915 55.0114C89.6117 55.4853 90.455 55.7223 91.4213 55.7223C92.3877 55.7223 93.231 55.4853 93.9512 55.0114C94.6713 54.5374 95.2284 53.8419 95.6223 52.9247C96.0224 52.0076 96.2225 50.8812 96.2225 49.5455Z" fill="white"/>
</svg>
