<svg width="201" height="166" viewBox="0 0 201 166" fill="none" xmlns="http://www.w3.org/2000/svg">
<g id="Design set-02-16" clip-path="url(#clip0_7562_45853)">
<g id="_x3C_Layer_x3E_">
<g id="Group">
<path id="Vector" d="M166.492 92.3469L127.482 74.6086C122.046 72.138 120.467 65.206 124.303 60.6514L144.499 36.6758L200.49 60.3292L177.401 89.6972C174.827 92.9842 170.306 94.0799 166.492 92.3469Z" fill="#023047"/>
<path id="Vector_2" d="M142.398 1.06993L194.906 16.1657C198.223 17.1182 200.501 20.133 200.501 23.5561V60.3288L144.511 36.6754L136.875 6.35489C136.046 3.0679 139.125 0.124653 142.398 1.06993Z" fill="#023047"/>
<path id="Vector_3" d="M147.636 36.4455L140.49 7.19922L194.88 23.3191V57.0125L147.636 36.4455Z" fill="#F7885D"/>
<g id="Group_2">
<path id="Vector_4" d="M134.968 62.3529L137.326 62.3243C137.968 62.3171 138.451 62.8972 138.321 63.5202L138.235 63.9427C137.824 65.998 135.949 67.4302 133.843 67.3085C131.839 67.1939 129.74 67.065 129.618 67.0435L129.041 64.4368L134.968 62.3529Z" fill="white"/>
<path id="Vector_5" d="M134.086 68.0325C133.992 68.0325 133.898 68.0325 133.797 68.0253C129.666 67.789 129.55 67.7603 129.464 67.7389C129.19 67.6816 128.973 67.4667 128.909 67.1946L128.332 64.5879C128.252 64.237 128.454 63.879 128.793 63.7572L134.713 61.6733C134.785 61.6447 134.864 61.6304 134.944 61.6304L137.302 61.6017C137.828 61.5946 138.318 61.8237 138.65 62.2248C138.982 62.6258 139.119 63.1485 139.011 63.657L138.938 64.0867C138.477 66.3782 136.422 68.0325 134.086 68.0325ZM130.206 66.3711C130.704 66.4069 131.749 66.4713 133.884 66.5931C135.622 66.7005 137.186 65.4903 137.525 63.8002L137.612 63.3777C137.633 63.2631 137.583 63.1772 137.554 63.1414C137.525 63.1056 137.453 63.0411 137.338 63.0411L135.102 63.0626L129.896 64.8959L130.206 66.3711Z" fill="#080717"/>
</g>
<g id="Group_3">
<path id="Vector_6" d="M71.252 113.164L108.516 93.7572L109.793 76.8711C110.24 70.9631 112.843 65.4204 117.118 61.2812L119.996 58.4955L127.004 55.7814C128.006 57.5789 127.869 59.7917 126.651 61.4531L126.557 61.5748L127.148 61.5963L138.541 54.1415C139.233 53.6904 140.171 53.9338 140.553 54.6643L140.776 55.1011C141.534 56.562 141.065 58.3523 139.688 59.2618L129.643 65.9073L129.809 72.911L140.733 64.2316L144.511 62.1119C145.471 61.5748 146.689 61.9042 147.237 62.8495C147.771 63.7661 147.497 64.9263 146.61 65.5135L143.545 67.5329L137.106 75.8829L136.991 76.1264C135.037 80.1939 134.842 84.8845 136.464 89.0953L139.435 79.1412C139.716 78.1959 140.373 77.4082 141.26 76.9642C142.103 76.5345 143.077 76.4558 143.978 76.7279L144.915 77.0143L142.673 90.6063C141.678 96.636 137.647 101.749 131.994 104.155L96.727 133.237L71.252 113.164Z" fill="white"/>
<path id="Vector_7" d="M96.728 133.967C96.5189 133.967 96.317 133.881 96.1728 133.709C95.9204 133.408 95.9637 132.95 96.2665 132.699L131.533 103.618C131.584 103.575 131.649 103.539 131.714 103.51C137.172 101.19 141.008 96.3277 141.967 90.5057L144.109 77.5296L143.77 77.4222C143.042 77.2002 142.27 77.2646 141.592 77.6084C140.886 77.9664 140.359 78.6038 140.136 79.3557L137.165 89.3097C137.078 89.6034 136.812 89.811 136.502 89.8182C136.184 89.8468 135.91 89.6463 135.802 89.3599C134.122 84.9844 134.317 80.0503 136.35 75.8252L136.466 75.5817C136.487 75.5388 136.516 75.4958 136.545 75.4528L142.984 67.1029C143.034 67.0384 143.092 66.9883 143.157 66.9454L146.221 64.9259C146.791 64.5535 146.964 63.8016 146.625 63.2144C146.272 62.6128 145.486 62.398 144.873 62.7417L141.145 64.8328L130.272 73.4764C130.055 73.6482 129.767 73.684 129.515 73.5695C129.269 73.4549 129.104 73.2114 129.096 72.9393L128.93 65.9356C128.923 65.6921 129.046 65.4558 129.248 65.3269L139.292 58.6813C140.359 57.9724 140.727 56.5831 140.143 55.4445L139.919 55.0077C139.833 54.8358 139.681 54.714 139.494 54.6639C139.307 54.6138 139.112 54.6496 138.953 54.7498L127.56 62.2046C127.438 62.2834 127.286 62.3264 127.142 62.3192L126.551 62.2977C126.284 62.2906 126.046 62.133 125.924 61.8967C125.808 61.6604 125.83 61.374 125.989 61.1591L126.082 61.0374C127.005 59.777 127.207 58.1299 126.652 56.6977L120.408 59.111L117.639 61.7965C113.485 65.8139 110.962 71.1848 110.529 76.928L109.253 93.8141C109.231 94.0576 109.087 94.2796 108.871 94.3942L71.6063 113.801C71.253 113.987 70.8204 113.851 70.6329 113.5C70.4454 113.149 70.5824 112.72 70.9357 112.533L107.847 93.3128L109.094 76.8206C109.556 70.7336 112.231 65.0333 116.636 60.7724L119.513 57.9867C119.586 57.9223 119.665 57.865 119.751 57.8292L126.76 55.1151C127.099 54.9862 127.474 55.1222 127.654 55.4373C128.462 56.8839 128.613 58.5739 128.145 60.1064L138.167 53.5468C138.672 53.2174 139.292 53.1171 139.869 53.2675C140.453 53.4179 140.936 53.8117 141.21 54.3417L141.441 54.7785C142.364 56.5616 141.787 58.7458 140.107 59.8558L130.394 66.2865L130.517 71.4497L140.302 63.6727C140.33 63.6512 140.366 63.6297 140.395 63.6082L144.174 61.4885C145.472 60.7653 147.137 61.2164 147.88 62.4911C148.601 63.73 148.226 65.3198 147.029 66.1075L144.065 68.0625L137.742 76.2549L137.662 76.4268C136.141 79.592 135.737 83.1798 136.48 86.5742L138.758 78.9332C139.097 77.8089 139.891 76.8564 140.943 76.3193C141.96 75.8037 143.114 75.7035 144.202 76.0401L145.14 76.3265C145.486 76.4339 145.695 76.7705 145.637 77.1286L143.395 90.7205C142.364 96.9937 138.247 102.243 132.384 104.771L97.1967 133.788C97.0525 133.917 96.8866 133.967 96.728 133.967Z" fill="#080717"/>
</g>
<g id="Group_4">
<path id="Vector_8" d="M118.163 67.6247L117.232 66.5362L124.248 60.6641L126.628 60.8646L126.505 62.2896L124.717 62.1393L118.163 67.6247Z" fill="#080717"/>
</g>
<g id="Group_5">
<path id="Vector_9" d="M123.933 71.4293L122.527 71.1142L124.503 62.3919L126.774 60.9883L127.539 62.2057L125.779 63.2942L123.933 71.4293Z" fill="#080717"/>
</g>
<g id="Group_6">
<g id="Group_7">
<path id="Vector_10" d="M162.959 137.784L172.131 122.23L166.493 116.916C162.447 112.218 160.616 106.031 161.452 99.9012L162.743 90.4771C162.837 89.3886 164.07 88.8014 164.978 89.4101L165.57 89.8039C166.738 90.5845 167.401 91.9165 167.322 93.3058L166.868 101.162C166.831 101.799 167.661 102.093 168.036 101.57C170.336 98.3974 171.432 94.516 171.129 90.6131L171.086 88.2141L162.224 80.4371C161.337 79.5634 161.15 78.21 161.762 77.1286L161.957 76.7849C162.375 76.0473 163.349 75.8539 164.019 76.3695L175.643 85.3568L176.011 92.6827C176.962 92.1743 177.532 91.1717 177.474 90.0975L177.179 84.6837L168.18 77.5082C166.507 76.169 166.269 73.7271 167.653 72.0943C168.216 71.4355 169.204 71.3496 169.867 71.901L171.771 73.4836C171.684 72.259 172.167 71.0631 173.083 70.2467L173.645 69.7383L183.661 78.3604L183.776 77.9522C184.086 76.8851 184.829 75.9972 185.824 75.4959L186.769 75.0232L192.263 83.7599L191.809 124.879L192.018 134.776L162.959 137.784Z" fill="white"/>
<path id="Vector_11" d="M162.958 138.499C162.836 138.499 162.706 138.47 162.598 138.398C162.252 138.198 162.136 137.761 162.338 137.417L171.222 122.357L166.001 117.43C165.98 117.416 165.965 117.395 165.951 117.373C161.776 112.525 159.879 106.123 160.737 99.7995L162.021 90.3683C162.079 89.6378 162.54 88.9862 163.232 88.6496C163.932 88.3202 164.732 88.3703 165.374 88.8L165.965 89.1938C167.335 90.1105 168.128 91.6931 168.035 93.333L167.595 100.924C169.693 97.9305 170.688 94.2926 170.4 90.6547L170.364 88.5278L161.74 80.9585C160.6 79.8342 160.363 78.1226 161.127 76.7692L161.322 76.4254C161.624 75.8955 162.144 75.516 162.742 75.4014C163.34 75.2796 163.968 75.43 164.451 75.8024L176.074 84.7897C176.24 84.9186 176.341 85.112 176.348 85.3196L176.63 90.9197C176.716 90.669 176.759 90.4041 176.745 90.1319L176.464 85.0403L167.717 78.0653C166.751 77.2991 166.16 76.2034 166.037 74.9789C165.922 73.7543 166.297 72.5656 167.09 71.6346C167.905 70.6822 169.354 70.5533 170.32 71.3553L171.171 72.0643C171.395 71.1691 171.885 70.3527 172.592 69.7154L173.154 69.207C173.421 68.9635 173.832 68.9635 174.106 69.1998L183.314 77.1272C183.761 76.1533 184.525 75.3513 185.491 74.8643L186.436 74.3917C186.768 74.2269 187.179 74.3344 187.373 74.6495L192.868 83.3861C192.94 83.5007 192.976 83.6367 192.976 83.7728L192.522 124.892L192.731 134.768C192.738 135.161 192.421 135.491 192.024 135.498C191.628 135.505 191.296 135.19 191.289 134.796L191.08 124.9L191.527 83.9662L186.494 75.9671L186.14 76.1461C185.326 76.5543 184.713 77.2919 184.46 78.1656L184.345 78.5738C184.28 78.8101 184.093 78.9891 183.855 79.0608C183.624 79.1324 183.364 79.0751 183.177 78.9175L173.644 70.7108L173.551 70.7896C172.794 71.4699 172.404 72.4366 172.476 73.4464C172.498 73.7328 172.339 74.0049 172.087 74.1338C171.827 74.2628 171.517 74.2269 171.294 74.0479L169.383 72.4653C169.022 72.1645 168.482 72.2146 168.179 72.5655C167.631 73.2029 167.378 74.0193 167.458 74.85C167.537 75.6807 167.948 76.4326 168.604 76.9554L177.603 84.1309C177.762 84.2598 177.863 84.446 177.87 84.6536L178.165 90.0675C178.238 91.4138 177.517 92.6885 176.32 93.3258C176.103 93.4404 175.836 93.4404 175.627 93.3187C175.411 93.1969 175.274 92.9749 175.26 92.7315L174.906 85.735L163.55 76.9482C163.391 76.8265 163.203 76.7835 163.009 76.8193C162.814 76.8551 162.655 76.9697 162.562 77.1416L162.367 77.4853C161.92 78.2802 162.057 79.2899 162.706 79.9344L171.539 87.6828C171.69 87.8189 171.777 88.0051 171.784 88.2056L171.827 90.6046C172.145 94.622 170.998 98.6824 168.597 101.991C168.236 102.485 167.609 102.678 167.032 102.478C166.455 102.277 166.088 101.726 166.124 101.124L166.578 93.2685C166.643 92.1371 166.095 91.0343 165.143 90.4041L164.552 90.0102C164.242 89.8025 163.953 89.9028 163.838 89.9601C163.73 90.0102 163.463 90.1749 163.434 90.5401L162.144 100.007C161.336 105.908 163.11 111.895 166.996 116.428L172.606 121.72C172.851 121.949 172.902 122.314 172.729 122.601L163.55 138.155C163.449 138.377 163.203 138.499 162.958 138.499Z" fill="#080717"/>
</g>
<g id="Group_8">
<path id="Vector_12" d="M182.501 92.5227L181.902 82.4183L171.324 74.0468L172.226 72.9297L183.301 81.695L183.943 92.4439L182.501 92.5227Z" fill="#080717"/>
</g>
<g id="Group_9">
<path id="Vector_13" d="M187.455 91.0496L186.741 81.7902L183.215 78.9186L184.131 77.8086L188.132 81.0741L188.897 90.935L187.455 91.0496Z" fill="#080717"/>
</g>
</g>
<g id="Group_10">
<path id="Vector_14" d="M130.339 67.061L128.896 67.0252L128.933 65.5285L134.564 61.7617L135.364 62.9505L130.36 66.3019L130.339 67.061Z" fill="#080717"/>
</g>
<g id="Group_11">
<path id="Vector_15" d="M131.238 46.2291L128.52 36.1605L128.498 36.096C132.868 28.498 131.793 18.6514 125.26 12.1634C117.437 4.39347 104.754 4.39347 96.9301 12.1634C89.1066 19.9332 89.1066 32.5298 96.9301 40.2997C103.463 46.7877 113.377 47.8547 121.028 43.515L121.093 43.5294L131.238 46.2291Z" fill="white"/>
<path id="Vector_16" d="M131.24 46.9454C131.175 46.9454 131.117 46.9382 131.052 46.9239L121.131 44.2814C113.076 48.6999 102.96 47.2963 96.4271 40.8082C88.3368 32.7734 88.3368 19.6971 96.4271 11.655C104.517 3.62019 117.691 3.62019 125.781 11.655C132.314 18.1431 133.727 28.1902 129.279 36.1893L131.939 46.0431C132.004 46.2937 131.932 46.5515 131.752 46.7377C131.615 46.8738 131.427 46.9454 131.24 46.9454ZM111.101 7.06472C106.154 7.06472 101.208 8.9338 97.4438 12.6719C89.9159 20.1482 89.9159 32.3222 97.4438 39.7985C103.587 45.8998 113.134 47.1745 120.669 42.8922C120.835 42.7991 121.03 42.7704 121.21 42.8205L130.209 45.2124L127.815 36.3397C127.764 36.1606 127.771 35.8957 127.865 35.731C132.17 28.2475 130.886 18.7589 124.75 12.6648C120.994 8.93379 116.047 7.06472 111.101 7.06472Z" fill="#080717"/>
</g>
<path id="Vector_17" d="M102.422 28.6685L102.314 28.5611C99.9057 26.1693 99.9057 22.2951 102.314 19.9033C104.722 17.5114 108.623 17.5114 111.032 19.9033L111.14 20.0107L111.248 19.9033C113.656 17.5114 117.557 17.5114 119.966 19.9033C122.374 22.2951 122.374 26.1693 119.966 28.5611L119.857 28.6685L111.14 37.3264L102.422 28.6685Z" fill="#F7885D"/>
<g id="Group_12">
<g id="Group_13">
<path id="Vector_18" d="M67.3083 35.0563C76.2525 35.0563 83.5032 29.0896 83.5032 21.7293C83.5032 14.369 76.2525 8.40234 67.3083 8.40234C58.364 8.40234 51.1133 14.369 51.1133 21.7293C51.1133 29.0896 58.364 35.0563 67.3083 35.0563Z" fill="#080717"/>
<g id="Group_14">
<path id="Vector_19" d="M40.1914 109.235L72.1343 96.6238L72.8698 64.7278L43.054 64.0547L40.1914 109.235Z" fill="white"/>
<path id="Vector_20" d="M40.195 109.949C40.0436 109.949 39.8994 109.899 39.7696 109.813C39.5677 109.67 39.4595 109.434 39.4739 109.19L42.3293 64.0102C42.351 63.6234 42.6899 63.3155 43.0648 63.337L72.8806 64.0102C73.2772 64.0173 73.5944 64.3467 73.5872 64.7406L72.8517 96.6365C72.8445 96.923 72.6643 97.1808 72.3975 97.2882L40.4546 109.892C40.3753 109.928 40.2887 109.949 40.195 109.949ZM43.7282 64.7836L40.9882 108.152L71.4312 96.1352L72.1379 65.4281L43.7282 64.7836Z" fill="#080717"/>
</g>
<g id="Group_15">
<path id="Vector_21" d="M50.3828 75.7042C43.5255 73.5344 37.4109 68.7722 33.6254 61.9046C25.9749 48.0263 30.9214 31.1115 44.2826 23.4491C66.2028 10.8812 80.4653 28.7698 82.03 33.1739C82.3978 34.2052 82.7511 35.2006 83.1116 36.1673C83.8976 37.7141 84.5321 39.2968 85.0224 40.9009C86.5439 44.2093 88.2167 46.5797 90.5385 47.3674C94.0933 48.5777 92.1681 75.9334 71.5675 73.9211L50.3828 75.7042Z" fill="white"/>
<path id="Vector_22" d="M50.3862 76.4193C50.3141 76.4193 50.242 76.405 50.1698 76.3835C42.8439 74.0705 36.7437 69.0433 32.9942 62.2473C25.2068 48.1183 30.0091 30.8097 43.9255 22.8321C52.2249 18.0771 60.2719 17.0746 67.8574 19.8531C76.1496 22.8966 81.6296 29.8788 82.7184 32.9437C83.079 33.9606 83.4323 34.9417 83.7784 35.8942C84.5571 37.4338 85.2061 39.0379 85.7036 40.6563C87.3332 44.2011 88.9051 46.063 90.7799 46.7004C92.9503 47.438 93.1377 52.9664 92.0634 57.8862C91.025 62.6484 88.8619 66.8735 85.9848 69.7809C82.2209 73.5835 77.3466 75.2234 71.5132 74.6505C71.1166 74.6147 70.8282 74.2638 70.8642 73.8699C70.9003 73.4761 71.2608 73.1825 71.6502 73.2254C85.8118 74.6075 89.7776 61.6028 90.6573 57.5854C91.9047 51.8922 90.9746 48.2759 90.3184 48.0539C88.0326 47.2733 86.2012 45.1607 84.3841 41.2078C84.3697 41.1791 84.3624 41.1505 84.348 41.1218C83.8649 39.5535 83.2448 37.9995 82.4877 36.5029C82.4733 36.4814 82.4661 36.4527 82.4516 36.4241C82.0983 35.4573 81.7378 34.4548 81.3701 33.4235C80.6274 31.3325 75.7386 24.2715 67.3671 21.1994C60.207 18.5712 52.5638 19.538 44.6538 24.0782C31.4223 31.6619 26.8652 48.1326 34.2705 61.567C37.8398 68.0407 43.6443 72.8244 50.6169 75.0301C50.9991 75.1518 51.2082 75.5528 51.0856 75.9324C50.9774 76.226 50.689 76.4193 50.3862 76.4193Z" fill="#080717"/>
</g>
<path id="Vector_23" d="M39.2883 18.664C48.3304 13.7514 58.8651 14.0522 67.5682 18.5208C64.8643 19.1653 62.2108 20.1392 59.6799 21.5142C42.5043 30.8524 37.1612 53.983 47.7391 73.175C48.3232 74.242 48.9577 75.266 49.6139 76.2614C40.7088 74.6144 32.5032 69.043 27.7226 60.3708C19.4304 45.318 24.6076 26.6416 39.2883 18.664Z" fill="#080717"/>
<path id="Vector_24" d="M69.5254 16.5715C69.5254 16.5715 67.1243 24.6851 60.2958 28.6237C56.6833 30.7077 63.6055 30.0488 63.0791 34.3169C59.0989 66.2701 56.5391 72.307 56.5391 72.307C55.9334 75.0497 53.6044 77.0835 50.7923 77.327L42.3126 78.0503L39.6447 70.3162L35.3184 37.0023C35.3039 37.0095 52.7103 12.0671 69.5254 16.5715Z" fill="#080717"/>
<path id="Vector_25" d="M49.4805 47.8192C51.2615 45.9501 53.8861 45.3486 56.2079 46.0289C54.1024 50.0678 53.5761 54.6796 54.5928 59.005C52.855 59.0766 51.0884 58.4822 49.7256 57.1932C47.0577 54.6724 46.9423 50.476 49.4805 47.8192Z" fill="white"/>
<g id="Group_16">
<path id="Vector_26" d="M86.1613 61.0599C86.1325 61.0599 86.1108 61.0599 86.082 61.0527C83.2122 60.7377 81.7557 58.1525 81.698 58.045C81.5033 57.7013 81.6331 57.2645 81.9864 57.0711C82.3325 56.8849 82.7723 57.0067 82.967 57.3576C82.9887 57.4005 84.1496 59.3985 86.2478 59.6348C86.6444 59.6778 86.9256 60.0287 86.8824 60.4226C86.8391 60.7949 86.5219 61.0599 86.1613 61.0599Z" fill="#080717"/>
</g>
<g id="Group_17">
<path id="Vector_27" d="M73.7959 39.2742C73.4426 39.2742 73.1325 39.0164 73.0821 38.6511C72.9018 37.312 73.7743 35.5145 75.202 34.2685C76.745 32.9294 78.627 32.471 80.4945 32.9795C80.8767 33.0869 81.1074 33.4808 80.9993 33.8603C80.8911 34.2399 80.4945 34.469 80.1124 34.3616C78.2448 33.8532 76.8316 34.7626 76.1538 35.3498C75.0001 36.3524 74.4088 37.7202 74.5098 38.4578C74.5602 38.8517 74.2862 39.2097 73.8896 39.2599C73.8608 39.267 73.832 39.2742 73.7959 39.2742Z" fill="#080717"/>
</g>
<path id="Vector_28" d="M79.9156 43.1071C80.4131 43.8089 81.2279 44.0882 81.7398 43.7301C82.2446 43.3721 82.2518 42.5199 81.7543 41.8181C81.2567 41.1163 80.4419 40.837 79.93 41.1951C79.4252 41.546 79.418 42.4053 79.9156 43.1071Z" fill="#080717"/>
</g>
<path id="Vector_29" d="M61.9834 31.4492C61.9834 31.4492 73.5853 39.8493 72.1359 45.8575C70.6866 51.8586 60.051 53.0617 61.2552 63.3881C62.4666 73.7146 64.1899 78.7775 76.7868 79.422C93.5874 80.2742 99.6948 95.5633 99.6948 104.93C99.6948 114.297 56.662 91.2451 56.662 91.2451C56.662 91.2451 41.9236 76.1135 61.9834 31.4492Z" fill="#080717"/>
<g id="Group_18">
<path id="Vector_30" d="M6.35352 164.107L37.222 90.5547L73.5778 91.6718C82.18 91.9368 90.5876 94.2642 98.0866 98.4535L157.322 131.538L192.689 133.2C198.782 149.033 185.371 165.497 168.505 162.883L98.5697 152.062L95.5196 164.53L6.35352 164.107Z" fill="white"/>
<path id="Vector_31" d="M95.5262 165.246C95.4685 165.246 95.4109 165.238 95.3532 165.224C94.9638 165.131 94.7258 164.744 94.8196 164.358L97.8697 151.89C97.9562 151.532 98.3095 151.296 98.6844 151.353L168.62 162.173C176.285 163.362 183.769 160.491 188.644 154.504C193.424 148.639 194.729 140.962 192.177 133.887L157.285 132.247C157.17 132.24 157.061 132.211 156.968 132.154L97.7327 99.069C90.3634 94.9514 82.0064 92.6383 73.5556 92.3805L37.6973 91.2777L7.0235 164.386C6.87208 164.751 6.44665 164.923 6.07891 164.773C5.71117 164.623 5.53812 164.2 5.68954 163.835L36.5581 90.2823C36.6734 90.0101 36.9546 89.824 37.2431 89.8454L73.5988 90.9626C82.2804 91.2275 90.8682 93.6051 98.4393 97.8302L157.523 130.836L192.725 132.49C193.013 132.505 193.266 132.684 193.367 132.949C196.323 140.625 194.975 149.025 189.769 155.413C184.563 161.801 176.573 164.859 168.396 163.599L99.1171 152.878L96.2256 164.708C96.1463 165.024 95.8507 165.246 95.5262 165.246Z" fill="#080717"/>
</g>
<path id="Vector_32" d="M53.5304 14.1621C45.5555 10.0803 17.5063 18.4803 20.6501 46.8172C22.2148 60.9032 25.4884 82.1147 21.1332 89.3117C16.7852 96.5158 5.42136 104.2 10.9807 109.957C16.5401 115.722 47.0048 119.081 51.1148 114.763C55.2249 110.437 69.0043 96.2723 53.2924 70.1053C37.5806 43.9384 53.7755 30.9695 55.4628 30.0099C57.1573 29.0503 65.2332 20.1561 53.5304 14.1621Z" fill="#080717"/>
<path id="Vector_33" d="M48.6715 129.511C61.7254 129.511 72.3078 119.001 72.3078 106.037C72.3078 93.0723 61.7254 82.5625 48.6715 82.5625C35.6175 82.5625 25.0352 93.0723 25.0352 106.037C25.0352 119.001 35.6175 129.511 48.6715 129.511Z" fill="#080717"/>
<path id="Vector_34" d="M24.1363 127.136C37.1903 127.136 47.7726 116.626 47.7726 103.662C47.7726 90.6973 37.1903 80.1875 24.1363 80.1875C11.0823 80.1875 0.5 90.6973 0.5 103.662C0.5 116.626 11.0823 127.136 24.1363 127.136Z" fill="#080717"/>
<path id="Vector_35" d="M18.0978 93.7347C25.5009 93.7347 31.5023 87.7744 31.5023 80.422C31.5023 73.0696 25.5009 67.1094 18.0978 67.1094C10.6947 67.1094 4.69336 73.0696 4.69336 80.422C4.69336 87.7744 10.6947 93.7347 18.0978 93.7347Z" fill="#080717"/>
</g>
</g>
</g>
</g>
<defs>
<clipPath id="clip0_7562_45853">
<rect width="200" height="164.356" fill="white" transform="translate(0.5 0.890625)"/>
</clipPath>
</defs>
</svg>
