<svg width="255" height="178" viewBox="0 0 255 178" fill="none" xmlns="http://www.w3.org/2000/svg">
<g clip-path="url(#clip0_7562_46022)">
<path d="M150.877 108.21H9.01293C4.49794 108.21 0.84375 104.488 0.84375 99.9087V9.37188C0.84375 4.7923 4.50638 1.07031 9.01293 1.07031H150.877C155.392 1.07031 159.046 4.7923 159.046 9.37188V99.9001C159.046 104.488 155.392 108.21 150.877 108.21Z" fill="white"/>
<path d="M150.877 109.066H9.01311C4.0424 109.066 0 104.958 0 99.9069V9.3701C0 4.31884 4.0424 0.210938 9.01311 0.210938H150.877C155.847 0.210938 159.89 4.31884 159.89 9.3701V99.8983C159.89 104.958 155.847 109.066 150.877 109.066ZM9.01311 1.92614C4.97915 1.92614 1.68785 5.2622 1.68785 9.3701V99.8983C1.68785 104.006 4.97915 107.342 9.01311 107.342H150.877C154.919 107.342 158.202 103.998 158.202 99.8983V9.3701C158.202 5.2622 154.911 1.92614 150.877 1.92614H9.01311Z" fill="#080717"/>
<path d="M11.2879 13.9332C9.19496 13.9332 7.49023 12.2009 7.49023 10.074C7.49023 7.9472 9.19496 6.21484 11.2879 6.21484C13.3808 6.21484 15.0855 7.9472 15.0855 10.074C15.0855 12.2009 13.3808 13.9332 11.2879 13.9332ZM11.2879 7.93004C10.1233 7.93004 9.17808 8.89055 9.17808 10.074C9.17808 11.2575 10.1233 12.218 11.2879 12.218C12.4525 12.218 13.3977 11.2575 13.3977 10.074C13.3977 8.89055 12.4525 7.93004 11.2879 7.93004Z" fill="#080717"/>
<path d="M21.2332 13.9332C19.1403 13.9332 17.4355 12.2009 17.4355 10.074C17.4355 7.9472 19.1403 6.21484 21.2332 6.21484C23.3261 6.21484 25.0309 7.9472 25.0309 10.074C25.0309 12.2009 23.3261 13.9332 21.2332 13.9332ZM21.2332 7.93004C20.0686 7.93004 19.1234 8.89055 19.1234 10.074C19.1234 11.2575 20.0686 12.218 21.2332 12.218C22.3978 12.218 23.343 11.2575 23.343 10.074C23.343 8.89055 22.3978 7.93004 21.2332 7.93004Z" fill="#080717"/>
<path d="M31.1785 13.9332C29.0856 13.9332 27.3809 12.2009 27.3809 10.074C27.3809 7.9472 29.0856 6.21484 31.1785 6.21484C33.2714 6.21484 34.9762 7.9472 34.9762 10.074C34.9762 12.2009 33.2714 13.9332 31.1785 13.9332ZM31.1785 7.93004C30.0139 7.93004 29.0687 8.89055 29.0687 10.074C29.0687 11.2575 30.0139 12.218 31.1785 12.218C32.3431 12.218 33.2883 11.2575 33.2883 10.074C33.2883 8.89055 32.3431 7.93004 31.1785 7.93004Z" fill="#080717"/>
<path d="M54.5508 86.0989L67.3362 67.832L84.3835 68.1751C86.1388 68.2094 87.4554 69.8217 87.1684 71.5797C86.7887 73.8867 84.8561 75.6019 82.5606 75.6705L72.9399 75.9621L66.948 85.3013L54.5508 86.0989Z" fill="white"/>
<path d="M54.5539 86.9579C54.3852 86.9579 54.2164 86.9064 54.0645 86.8035C53.6847 86.5291 53.5919 85.9974 53.8619 85.6114L66.6474 67.3446C66.8077 67.113 67.0778 66.993 67.3478 66.9844L84.3951 67.3274C85.4753 67.3531 86.4964 67.8505 87.1885 68.691C87.8805 69.54 88.1759 70.6463 87.9986 71.7269C87.5514 74.4283 85.2728 76.4523 82.5806 76.5295L73.3903 76.7953L67.6348 85.7572C67.3816 86.1517 66.8583 86.2632 66.4701 86.0059C66.0819 85.7487 65.9722 85.2169 66.2254 84.8225L72.2173 75.4832C72.3692 75.2516 72.6223 75.1058 72.9008 75.0973L82.5216 74.8057C84.412 74.7457 86.0154 73.3306 86.3277 71.4353C86.4289 70.8436 86.2602 70.2347 85.8888 69.7802C85.5091 69.317 84.9521 69.0426 84.3613 69.034L67.7613 68.6996L55.2375 86.5977C55.0772 86.8378 54.8156 86.9579 54.5539 86.9579Z" fill="#080717"/>
<path d="M247.76 154.395C257.413 144.585 257.413 128.681 247.76 118.871C238.107 109.062 222.456 109.062 212.803 118.871C203.15 128.681 203.15 144.585 212.803 154.395C222.456 164.204 238.107 164.204 247.76 154.395Z" fill="#080717"/>
<path d="M192.922 152.88C205.68 139.916 205.68 118.897 192.922 105.932C180.165 92.9678 159.48 92.9678 146.723 105.932C133.965 118.897 133.965 139.916 146.723 152.88C159.48 165.845 180.165 165.845 192.922 152.88Z" fill="#080717"/>
<path d="M238.941 113.603C242.078 100.102 233.851 86.5725 220.565 83.3845C207.279 80.1965 193.966 88.5569 190.829 102.058C187.692 115.559 195.919 129.088 209.205 132.276C222.49 135.464 235.804 127.104 238.941 113.603Z" fill="#080717"/>
<path d="M134.554 61.3994C137.223 44.6852 126.053 28.9367 109.606 26.2241C93.1582 23.5115 77.6608 34.862 74.9915 51.5762C72.3221 68.2903 83.4916 84.0388 99.9393 86.7514C116.387 89.464 131.884 78.1135 134.554 61.3994Z" fill="#F7885D"/>
<path d="M98.2391 69.1788L90.3906 61.2117L91.589 59.9939L98.2307 66.7432L118.637 45.7148L119.844 46.9241L98.2391 69.1788Z" fill="#080717"/>
<path d="M51.0469 176.356C51.0469 176.356 50.9287 89.9102 67.7819 85.3906C67.7819 85.3906 73.2927 89.4556 78.0778 90.622C81.7151 91.5139 86.036 86.1024 84.8629 92.766C79.3859 123.923 86.1541 176.365 86.1541 176.365H51.0469V176.356Z" fill="white"/>
<path d="M86.1552 177.212C85.7416 177.212 85.3787 176.895 85.3197 176.466C85.2522 175.943 78.602 123.535 84.0369 92.61C84.3914 90.6118 84.1213 90.2345 84.1129 90.2259C83.9103 90.1744 83.0326 90.5089 82.4503 90.7319C81.1338 91.2293 79.505 91.8553 77.8763 91.4608C73.6229 90.4231 68.9307 87.2586 67.6226 86.3324C54.6262 90.9377 51.8497 152.719 51.8834 176.355C51.8834 176.826 51.5037 177.212 51.0395 177.212C50.5753 177.212 50.1956 176.826 50.1956 176.355C50.1871 172.796 50.28 89.1882 67.5551 84.5572C67.7998 84.4886 68.0614 84.54 68.264 84.6944C68.3146 84.7373 73.6988 88.6736 78.2645 89.7885C79.3869 90.0629 80.695 89.5655 81.8511 89.1196C83.1255 88.6308 84.3238 88.1762 85.1931 88.9138C85.9357 89.5398 86.0792 90.6976 85.6826 92.9102C80.2899 123.578 86.9062 175.72 86.9738 176.243C87.0328 176.715 86.7121 177.144 86.248 177.204C86.2227 177.212 86.1889 177.212 86.1552 177.212Z" fill="#080717"/>
<path d="M68.2539 115.713C66.4985 103.586 80.8958 95.3791 80.8958 95.3791L86.3476 78.7588C87.4531 75.3884 90.8119 73.3559 94.2552 73.9562C95.386 74.1535 96.1118 75.2855 95.8333 76.4175L92.8374 88.5955C93.0652 94.4271 91.6812 100.199 88.8287 105.267L86.1619 110.001V176.354L68.2539 115.713Z" fill="white"/>
<path d="M86.1616 177.212C85.6974 177.212 85.3177 176.826 85.3177 176.355V110.002C85.3177 109.856 85.3599 109.702 85.4274 109.573L88.0942 104.84C90.8707 99.9083 92.2125 94.2996 91.9931 88.6309C91.9931 88.5451 92.0016 88.4679 92.0184 88.3907L95.0144 76.2128C95.0903 75.9041 95.0397 75.5782 94.8625 75.3124C94.6937 75.0379 94.4236 74.8664 94.1114 74.8064C91.0648 74.2661 88.128 76.0413 87.149 79.0343L81.6973 95.6546C81.6297 95.8604 81.4947 96.0234 81.309 96.1349C81.174 96.2121 67.4434 104.205 69.089 115.602C69.1565 116.074 68.8359 116.503 68.3801 116.571C67.9244 116.64 67.494 116.314 67.4265 115.851C66.667 110.62 68.7093 105.277 73.3171 100.414C76.2286 97.3355 79.2668 95.3802 80.2035 94.8142L85.554 78.5026C86.803 74.7035 90.5247 72.448 94.4067 73.134C95.1747 73.2713 95.8583 73.7258 96.2887 74.3947C96.7107 75.0551 96.8541 75.8784 96.66 76.6502L93.681 88.6909C93.892 94.6427 92.4657 100.526 89.5626 105.697L87.014 110.234V176.355C87.0055 176.826 86.6258 177.212 86.1616 177.212Z" fill="#080717"/>
<path d="M73.1607 98.5844L73.2788 98.4986C75.4224 96.9721 76.7558 94.528 76.8908 91.878L76.9246 91.2862C77.1777 86.4665 73.4898 82.3758 68.7469 82.1957L62.1221 81.947C59.7591 81.8612 57.4721 82.7703 55.7927 84.4683L52.5352 87.873L73.1607 98.5844Z" fill="white"/>
<path d="M73.1637 99.4437C72.9021 99.4437 72.6404 99.315 72.4717 99.0749C72.2016 98.689 72.2944 98.1487 72.6742 97.8828L72.7923 97.7971C74.7334 96.4163 75.9233 94.238 76.0499 91.8282L76.0837 91.2364C76.1934 89.1353 75.4845 87.1285 74.092 85.5763C72.6995 84.024 70.7923 83.1321 68.7246 83.0549L62.0998 82.8062C59.9731 82.7205 57.9055 83.5523 56.4033 85.0789L53.1542 88.4749C52.8251 88.818 52.2934 88.818 51.9643 88.4921C51.6267 88.1576 51.6267 87.6174 51.9474 87.2829L55.205 83.8782C57.0447 82.0086 59.5765 81.0053 62.1673 81.091L68.7921 81.3397C71.3155 81.4341 73.6363 82.5318 75.341 84.4185C77.0457 86.3138 77.9065 88.7665 77.7799 91.3222L77.7462 91.9139C77.5943 94.8555 76.1427 97.5055 73.7713 99.1949L73.6616 99.2721C73.4928 99.3922 73.324 99.4437 73.1637 99.4437Z" fill="#080717"/>
<path d="M68.7719 103.049L68.89 102.963C71.0336 101.437 72.367 98.9928 72.502 96.3428L72.5358 95.7511C72.789 90.9314 69.101 86.8406 64.3582 86.6605L57.7334 86.4118C55.3704 86.3261 53.0833 87.2351 51.4039 88.9332L47.8848 92.6037L68.7719 103.049Z" fill="white"/>
<path d="M68.7755 103.905C68.5055 103.905 68.2523 103.776 68.0835 103.536C67.8135 103.15 67.9063 102.61 68.2861 102.344L68.4042 102.258C70.3452 100.878 71.5352 98.6992 71.6617 96.2894L71.6955 95.6976C71.8052 93.5965 71.0963 91.5897 69.7038 90.0375C68.3114 88.4852 66.4041 87.5933 64.3365 87.5161L57.7117 87.2674C55.585 87.1817 53.5174 88.0135 52.0152 89.5401L48.496 93.202C48.1669 93.545 47.6352 93.545 47.3061 93.2192C46.9685 92.8847 46.9685 92.3444 47.2892 92.0099L50.8084 88.3394C52.6481 86.4698 55.1715 85.4665 57.7708 85.5608L64.3956 85.8095C66.9189 85.9038 69.2397 87.0016 70.9444 88.8883C72.6491 90.7836 73.5099 93.2363 73.3834 95.792L73.3496 96.3837C73.1977 99.3253 71.7461 101.975 69.3747 103.665L69.265 103.742C69.1047 103.853 68.9359 103.905 68.7755 103.905Z" fill="#080717"/>
<path d="M59.4726 100.019H58.1729C54.6285 100.019 51.7507 102.943 51.7507 106.545V107.514H64.3927L64.5108 107.428C66.6544 105.902 67.9878 103.458 68.1228 100.808L68.1566 100.216C68.4097 95.3962 64.7218 91.3055 59.9789 91.1254L53.3541 90.8767C50.9911 90.7909 48.7041 91.7 47.0247 93.398C46.0036 94.4357 45.4297 95.8422 45.4297 97.3001V102.583C45.4297 107.497 46.2061 112.377 47.7336 117.033L51.0418 127.127V176.354L59.4726 100.019Z" fill="white"/>
<path d="M51.0504 177.211C50.5862 177.211 50.2065 176.825 50.2065 176.353V127.264L46.9405 117.307C45.3792 112.548 44.5859 107.599 44.5859 102.582V97.2996C44.5859 95.5929 45.2358 93.9892 46.4257 92.7886C48.257 90.9276 50.7888 89.9156 53.3796 90.01L60.0044 90.2587C62.5278 90.353 64.8485 91.4507 66.5533 93.3374C68.258 95.2327 69.1188 97.6855 68.9922 100.241L68.9585 100.833C68.8065 103.774 67.355 106.424 64.9836 108.114L64.8739 108.191C64.7304 108.294 64.5616 108.345 64.3928 108.345H51.7508C51.2867 108.345 50.9069 107.96 50.9069 107.488V106.519C50.9069 102.445 54.1645 99.1348 58.1731 99.1348H59.4728C59.9369 99.1348 60.3167 99.5207 60.3167 99.9924C60.3167 100.464 59.9369 100.85 59.4728 100.85H58.1731C55.1012 100.85 52.5948 103.389 52.5948 106.519V106.63H64.1228C66.0047 105.241 67.1525 103.106 67.279 100.739L67.3128 100.147C67.4225 98.0457 66.7136 96.0389 65.3211 94.4866C63.9287 92.9344 62.0214 92.0425 59.9538 91.9653L53.329 91.7166C51.2023 91.6308 49.1347 92.4627 47.6325 93.9892C46.7633 94.8725 46.2907 96.0389 46.2907 97.291V102.574C46.2907 107.402 47.0502 112.17 48.5524 116.75L51.8606 126.844C51.8859 126.93 51.9028 127.024 51.9028 127.118V176.345C51.8943 176.825 51.5146 177.211 51.0504 177.211Z" fill="#080717"/>
<path d="M191.062 109.282C209.025 109.282 223.587 95.3823 223.587 78.2365C223.587 61.0908 209.025 47.1914 191.062 47.1914C173.099 47.1914 158.537 61.0908 158.537 78.2365C158.537 95.3823 173.099 109.282 191.062 109.282Z" fill="#080717"/>
<path d="M250.26 136.528L212.613 64.4128L198.637 58.1523L196.156 175.095C219.508 171.424 239.289 156.793 250.26 136.528Z" fill="#080717"/>
<path d="M197.807 86.6016H161.67V156.702H197.807V86.6016Z" fill="white"/>
<path d="M197.807 157.558H161.67C161.206 157.558 160.826 157.172 160.826 156.7V86.5998C160.826 86.1281 161.206 85.7422 161.67 85.7422H197.807C198.271 85.7422 198.651 86.1281 198.651 86.5998V156.7C198.651 157.172 198.279 157.558 197.807 157.558ZM162.514 155.842H196.963V87.4574H162.514V155.842Z" fill="#080717"/>
<path d="M162.092 128.698C171.738 126.46 180.05 119.35 183.477 109.136L186.625 99.7284L162.092 91.1953V128.698Z" fill="#080717"/>
<path d="M197.934 82.7087C200.137 72.7348 195.546 62.1263 186.17 57.2466C175.056 51.4664 161.443 55.9345 155.755 67.2291L154.616 69.4845C152.278 68.5755 149.611 69.5789 148.463 71.8944C147.333 74.1928 148.109 76.9285 150.177 78.3092L146.21 86.182C140.522 97.4766 144.919 111.31 156.033 117.09C167.148 122.87 180.76 118.402 186.448 107.107L189.858 100.332L194.474 100.787C199.479 101.276 203.935 97.5538 204.416 92.4682C204.838 87.983 202.036 83.9437 197.934 82.7087Z" fill="white"/>
<path d="M166.29 120.475C162.704 120.475 159.058 119.635 155.648 117.86C144.137 111.874 139.572 97.4918 145.462 85.7942L149.108 78.556C147.133 76.8237 146.526 73.925 147.715 71.5066C148.931 69.0538 151.623 67.8275 154.197 68.4535L155.015 66.8326C157.868 61.1639 162.72 56.9702 168.679 55.0149C174.637 53.0596 180.991 53.5827 186.561 56.4814C195.861 61.3183 200.866 71.781 198.916 82.1408C203.052 83.7531 205.685 88.0068 205.254 92.5521C205.001 95.2449 203.727 97.6633 201.676 99.3871C199.625 101.102 197.034 101.908 194.393 101.651L190.35 101.257L187.203 107.517C183.059 115.733 174.822 120.475 166.29 120.475ZM152.847 70.0143C151.344 70.0143 149.927 70.8548 149.218 72.287C148.289 74.1565 148.905 76.4463 150.635 77.6041C150.998 77.8442 151.116 78.3245 150.922 78.7104L146.956 86.5832C141.487 97.4318 145.732 110.785 156.408 116.342C167.083 121.899 180.223 117.585 185.692 106.737L189.101 99.9617C189.262 99.6444 189.591 99.4643 189.937 99.4986L194.553 99.9531C196.747 100.168 198.899 99.5072 200.604 98.075C202.309 96.6514 203.364 94.636 203.575 92.3977C203.955 88.4013 201.482 84.6793 197.701 83.5387C197.279 83.41 197.017 82.9727 197.119 82.5267C199.288 72.69 194.638 62.6132 185.793 58.0165C175.118 52.4593 161.978 56.773 156.509 67.6216L155.37 69.8771C155.176 70.263 154.72 70.4431 154.315 70.2888C153.834 70.1001 153.336 70.0143 152.847 70.0143Z" fill="#080717"/>
<path d="M193.713 94.812C193.654 94.812 193.586 94.8034 193.527 94.7948C193.071 94.6919 192.784 94.2288 192.886 93.7743C193.839 89.4348 197.89 88.7488 198.067 88.7145C198.531 88.6373 198.962 88.9632 199.029 89.4263C199.105 89.8894 198.785 90.3267 198.329 90.4039C198.194 90.4297 195.232 90.9699 194.531 94.1431C194.447 94.5376 194.101 94.812 193.713 94.812Z" fill="#080717"/>
<path d="M157.358 85.2418C155.012 85.2418 153.577 83.7238 153.56 83.6981C153.24 83.3551 153.265 82.8062 153.603 82.4889C153.94 82.163 154.472 82.1802 154.793 82.5232C155.046 82.7976 157.366 85.0188 161.105 81.8714C161.468 81.5713 162 81.6227 162.295 81.9829C162.59 82.3517 162.54 82.892 162.185 83.1921C160.337 84.7444 158.7 85.2418 157.358 85.2418Z" fill="#080717"/>
<path d="M159.958 71.6914C159.561 72.9177 160.051 74.1784 161.047 74.5043C162.043 74.8387 163.165 74.1098 163.562 72.8834C163.958 71.6571 163.469 70.3964 162.473 70.0705C161.477 69.7446 160.346 70.465 159.958 71.6914Z" fill="#080717"/>
<path d="M170.208 70.5955C170.768 70.0262 169.964 68.2859 168.412 66.7085C166.86 65.131 165.147 64.3138 164.587 64.8832C164.026 65.4525 164.831 67.1928 166.383 68.7702C167.935 70.3477 169.648 71.1649 170.208 70.5955Z" fill="#080717"/>
<path d="M199.245 82.7039C201.296 72.3098 197.025 61.2553 188.316 56.1783C182.89 53.0138 176.822 52.7994 171.514 55.0206C174.358 55.3036 182.299 56.5642 183.86 61.8985C185.768 68.4334 186.004 80.8858 199.245 82.7039Z" fill="#080717"/>
<path d="M193.989 82.9779C190.275 82.9779 187.406 82.1288 185.296 80.4222C181.397 77.2662 180.975 71.7776 180.638 67.3695C180.469 65.1998 180.317 63.1587 179.785 61.8037C177.524 56.0664 172.283 55.2431 172.232 55.2345C171.768 55.1659 171.447 54.7371 171.515 54.2654C171.582 53.7937 172.004 53.4679 172.468 53.5365C172.722 53.5708 178.739 54.5141 181.355 61.1691C181.979 62.7642 182.148 64.934 182.325 67.2323C182.655 71.5203 183.026 76.3829 186.359 79.0758C188.917 81.1426 192.9 81.7343 198.529 80.8853C198.985 80.8167 199.415 81.134 199.491 81.6057C199.558 82.0774 199.238 82.5148 198.782 82.5834C197.035 82.8492 195.449 82.9779 193.989 82.9779Z" fill="#080717"/>
<path d="M142.188 176.353C152.812 158.181 176.063 137.066 193.912 137.066C208.275 137.066 218.419 141.749 237.475 176.353H142.188Z" fill="#F7885D"/>
<path d="M222.748 147.683C231.851 138.432 231.851 123.435 222.748 114.185C213.646 104.934 198.887 104.934 189.785 114.185C180.682 123.435 180.682 138.432 189.785 147.683C198.887 156.933 213.646 156.933 222.748 147.683Z" fill="#080717"/>
<path d="M58.9857 42.973H18.9162C18.452 42.973 18.0723 42.5871 18.0723 42.1154C18.0723 41.6437 18.452 41.2578 18.9162 41.2578H58.9857C59.4498 41.2578 59.8296 41.6437 59.8296 42.1154C59.8296 42.5871 59.4498 42.973 58.9857 42.973Z" fill="#080717"/>
<path d="M58.9857 51.1097H18.9162C18.452 51.1097 18.0723 50.7238 18.0723 50.2521C18.0723 49.7805 18.452 49.3945 18.9162 49.3945H58.9857C59.4498 49.3945 59.8296 49.7805 59.8296 50.2521C59.8296 50.7238 59.4498 51.1097 58.9857 51.1097Z" fill="#080717"/>
<path d="M46.0399 59.2582H18.9162C18.452 59.2582 18.0723 58.8722 18.0723 58.4006C18.0723 57.9289 18.452 57.543 18.9162 57.543H46.0399C46.5041 57.543 46.8838 57.9289 46.8838 58.4006C46.8838 58.8722 46.5041 59.2582 46.0399 59.2582Z" fill="#080717"/>
</g>
<defs>
<clipPath id="clip0_7562_46022">
<rect width="255" height="177" fill="white" transform="translate(0 0.210938)"/>
</clipPath>
</defs>
</svg>
